<mxfile host="app.diagrams.net" modified="2023-02-11T19:11:47.224Z" agent="5.0 (Macintosh; Intel Mac OS X 10_15_7) AppleWebKit/605.1.15 (KHTML, like Gecko) Version/16.0 Safari/605.1.15" etag="pWZzCa-ri4fNjxER5A8x" version="20.8.20" type="github" pages="3">
  <diagram name="Page-1" id="CPny9vBj1eW2S8USpJcD">
    <mxGraphModel dx="2074" dy="1187" grid="1" gridSize="10" guides="1" tooltips="1" connect="1" arrows="1" fold="1" page="1" pageScale="1" pageWidth="827" pageHeight="1169" math="0" shadow="0">
      <root>
        <mxCell id="0" />
        <mxCell id="1" parent="0" />
        <mxCell id="Bm2fgD11PDPT4w5N4FDh-2" value="Systèmes" style="swimlane;whiteSpace=wrap;html=1;" parent="1" vertex="1">
          <mxGeometry x="400" y="50" width="370" height="1460" as="geometry" />
        </mxCell>
        <mxCell id="hsou_hVJxLvewTwKrY3T-5" value="Demande si le client a fini ses achats" style="rounded=1;whiteSpace=wrap;html=1;" vertex="1" parent="Bm2fgD11PDPT4w5N4FDh-2">
          <mxGeometry x="30" y="140" width="120" height="60" as="geometry" />
        </mxCell>
        <mxCell id="hsou_hVJxLvewTwKrY3T-11" value="Demande si le client à un code promo" style="rounded=1;whiteSpace=wrap;html=1;" vertex="1" parent="Bm2fgD11PDPT4w5N4FDh-2">
          <mxGeometry x="30" y="490" width="120" height="60" as="geometry" />
        </mxCell>
        <mxCell id="hsou_hVJxLvewTwKrY3T-27" style="edgeStyle=orthogonalEdgeStyle;rounded=0;orthogonalLoop=1;jettySize=auto;html=1;" edge="1" parent="Bm2fgD11PDPT4w5N4FDh-2" source="hsou_hVJxLvewTwKrY3T-16" target="hsou_hVJxLvewTwKrY3T-26">
          <mxGeometry relative="1" as="geometry" />
        </mxCell>
        <mxCell id="hsou_hVJxLvewTwKrY3T-16" value="Applique la réduction et affiche le nouveau prix" style="rounded=1;whiteSpace=wrap;html=1;" vertex="1" parent="Bm2fgD11PDPT4w5N4FDh-2">
          <mxGeometry x="40" y="600" width="120" height="60" as="geometry" />
        </mxCell>
        <mxCell id="hsou_hVJxLvewTwKrY3T-22" value="Demande au client de remplir ses coordonnées" style="rounded=1;whiteSpace=wrap;html=1;" vertex="1" parent="Bm2fgD11PDPT4w5N4FDh-2">
          <mxGeometry x="60" y="350" width="120" height="60" as="geometry" />
        </mxCell>
        <mxCell id="hsou_hVJxLvewTwKrY3T-26" value="Demande si le client est prêt a passer au paiement" style="rounded=1;whiteSpace=wrap;html=1;" vertex="1" parent="Bm2fgD11PDPT4w5N4FDh-2">
          <mxGeometry x="40" y="710" width="120" height="60" as="geometry" />
        </mxCell>
        <mxCell id="hsou_hVJxLvewTwKrY3T-30" value="Préviens le client que la page de paiement sera afficher dans 10 sec" style="rounded=1;whiteSpace=wrap;html=1;" vertex="1" parent="Bm2fgD11PDPT4w5N4FDh-2">
          <mxGeometry x="40" y="820" width="120" height="60" as="geometry" />
        </mxCell>
        <mxCell id="hsou_hVJxLvewTwKrY3T-32" value="Vérifie les informations" style="rounded=0;whiteSpace=wrap;html=1;" vertex="1" parent="Bm2fgD11PDPT4w5N4FDh-2">
          <mxGeometry x="40" y="920" width="120" height="60" as="geometry" />
        </mxCell>
        <mxCell id="hsou_hVJxLvewTwKrY3T-33" value="Valide le paiement" style="rounded=1;whiteSpace=wrap;html=1;" vertex="1" parent="Bm2fgD11PDPT4w5N4FDh-2">
          <mxGeometry x="40" y="1030" width="120" height="60" as="geometry" />
        </mxCell>
        <mxCell id="hsou_hVJxLvewTwKrY3T-34" value="Informe le client que le paiement est passé et envoie mail" style="rounded=0;whiteSpace=wrap;html=1;" vertex="1" parent="Bm2fgD11PDPT4w5N4FDh-2">
          <mxGeometry x="40" y="1140" width="120" height="60" as="geometry" />
        </mxCell>
        <mxCell id="hsou_hVJxLvewTwKrY3T-35" value="" style="ellipse;html=1;shape=endState;fillColor=strokeColor;" vertex="1" parent="Bm2fgD11PDPT4w5N4FDh-2">
          <mxGeometry x="105" y="1320" width="30" height="30" as="geometry" />
        </mxCell>
        <mxCell id="hsou_hVJxLvewTwKrY3T-1" value="CLient" style="swimlane;whiteSpace=wrap;html=1;" vertex="1" parent="1">
          <mxGeometry x="30" y="50" width="370" height="1280" as="geometry" />
        </mxCell>
        <mxCell id="hsou_hVJxLvewTwKrY3T-7" style="edgeStyle=orthogonalEdgeStyle;rounded=0;orthogonalLoop=1;jettySize=auto;html=1;exitX=0.5;exitY=1;exitDx=0;exitDy=0;" edge="1" parent="hsou_hVJxLvewTwKrY3T-1" source="hsou_hVJxLvewTwKrY3T-2" target="hsou_hVJxLvewTwKrY3T-4">
          <mxGeometry relative="1" as="geometry" />
        </mxCell>
        <mxCell id="hsou_hVJxLvewTwKrY3T-2" value="" style="ellipse;html=1;shape=startState;fillColor=#000000;strokeColor=#ff0000;" vertex="1" parent="hsou_hVJxLvewTwKrY3T-1">
          <mxGeometry x="60" y="40" width="30" height="30" as="geometry" />
        </mxCell>
        <mxCell id="hsou_hVJxLvewTwKrY3T-4" value="Confirmer l&#39;article dans le panier&amp;nbsp;" style="rounded=1;whiteSpace=wrap;html=1;" vertex="1" parent="hsou_hVJxLvewTwKrY3T-1">
          <mxGeometry x="60" y="150" width="120" height="60" as="geometry" />
        </mxCell>
        <mxCell id="hsou_hVJxLvewTwKrY3T-14" style="edgeStyle=orthogonalEdgeStyle;rounded=0;orthogonalLoop=1;jettySize=auto;html=1;entryX=0;entryY=0.5;entryDx=0;entryDy=0;" edge="1" parent="hsou_hVJxLvewTwKrY3T-1" source="hsou_hVJxLvewTwKrY3T-9" target="hsou_hVJxLvewTwKrY3T-2">
          <mxGeometry relative="1" as="geometry" />
        </mxCell>
        <mxCell id="hsou_hVJxLvewTwKrY3T-9" value="" style="rhombus;" vertex="1" parent="hsou_hVJxLvewTwKrY3T-1">
          <mxGeometry x="120" y="270" width="30" height="30" as="geometry" />
        </mxCell>
        <mxCell id="hsou_hVJxLvewTwKrY3T-15" value="Rentre le code&amp;nbsp;" style="rounded=1;whiteSpace=wrap;html=1;" vertex="1" parent="hsou_hVJxLvewTwKrY3T-1">
          <mxGeometry x="140" y="600" width="120" height="60" as="geometry" />
        </mxCell>
        <mxCell id="hsou_hVJxLvewTwKrY3T-20" style="edgeStyle=orthogonalEdgeStyle;rounded=0;orthogonalLoop=1;jettySize=auto;html=1;exitX=0.5;exitY=1;exitDx=0;exitDy=0;" edge="1" parent="hsou_hVJxLvewTwKrY3T-1" source="hsou_hVJxLvewTwKrY3T-18" target="hsou_hVJxLvewTwKrY3T-15">
          <mxGeometry relative="1" as="geometry" />
        </mxCell>
        <mxCell id="hsou_hVJxLvewTwKrY3T-18" value="" style="rhombus;" vertex="1" parent="hsou_hVJxLvewTwKrY3T-1">
          <mxGeometry x="185" y="540" width="30" height="30" as="geometry" />
        </mxCell>
        <mxCell id="hsou_hVJxLvewTwKrY3T-23" value="Rempli coordonnées&amp;nbsp;" style="rounded=1;whiteSpace=wrap;html=1;" vertex="1" parent="hsou_hVJxLvewTwKrY3T-1">
          <mxGeometry x="150" y="410" width="120" height="60" as="geometry" />
        </mxCell>
        <mxCell id="hsou_hVJxLvewTwKrY3T-28" value="Cliquer sur OUI" style="rounded=1;whiteSpace=wrap;html=1;" vertex="1" parent="hsou_hVJxLvewTwKrY3T-1">
          <mxGeometry x="140" y="720" width="120" height="60" as="geometry" />
        </mxCell>
        <mxCell id="hsou_hVJxLvewTwKrY3T-31" value="Rempli les informations et appuyé sur payer" style="rounded=1;whiteSpace=wrap;html=1;" vertex="1" parent="hsou_hVJxLvewTwKrY3T-1">
          <mxGeometry x="150" y="900" width="120" height="60" as="geometry" />
        </mxCell>
        <mxCell id="hsou_hVJxLvewTwKrY3T-8" style="edgeStyle=orthogonalEdgeStyle;rounded=0;orthogonalLoop=1;jettySize=auto;html=1;exitX=1;exitY=0.5;exitDx=0;exitDy=0;entryX=-0.033;entryY=0.65;entryDx=0;entryDy=0;entryPerimeter=0;" edge="1" parent="1" source="hsou_hVJxLvewTwKrY3T-4" target="hsou_hVJxLvewTwKrY3T-5">
          <mxGeometry relative="1" as="geometry" />
        </mxCell>
        <mxCell id="hsou_hVJxLvewTwKrY3T-10" style="edgeStyle=orthogonalEdgeStyle;rounded=0;orthogonalLoop=1;jettySize=auto;html=1;exitX=1;exitY=0.5;exitDx=0;exitDy=0;entryX=1;entryY=0.5;entryDx=0;entryDy=0;" edge="1" parent="1" source="hsou_hVJxLvewTwKrY3T-5" target="hsou_hVJxLvewTwKrY3T-9">
          <mxGeometry relative="1" as="geometry" />
        </mxCell>
        <mxCell id="hsou_hVJxLvewTwKrY3T-17" style="edgeStyle=orthogonalEdgeStyle;rounded=0;orthogonalLoop=1;jettySize=auto;html=1;exitX=1;exitY=0.5;exitDx=0;exitDy=0;" edge="1" parent="1" source="hsou_hVJxLvewTwKrY3T-15" target="hsou_hVJxLvewTwKrY3T-16">
          <mxGeometry relative="1" as="geometry" />
        </mxCell>
        <mxCell id="hsou_hVJxLvewTwKrY3T-19" style="edgeStyle=orthogonalEdgeStyle;rounded=0;orthogonalLoop=1;jettySize=auto;html=1;entryX=1;entryY=0.5;entryDx=0;entryDy=0;exitX=0.5;exitY=1;exitDx=0;exitDy=0;" edge="1" parent="1" source="hsou_hVJxLvewTwKrY3T-11" target="hsou_hVJxLvewTwKrY3T-18">
          <mxGeometry relative="1" as="geometry" />
        </mxCell>
        <mxCell id="hsou_hVJxLvewTwKrY3T-21" value="" style="edgeStyle=orthogonalEdgeStyle;rounded=0;orthogonalLoop=1;jettySize=auto;html=1;exitX=0.5;exitY=1;exitDx=0;exitDy=0;entryX=0.5;entryY=0;entryDx=0;entryDy=0;endArrow=none;" edge="1" parent="1" source="hsou_hVJxLvewTwKrY3T-9" target="hsou_hVJxLvewTwKrY3T-22">
          <mxGeometry relative="1" as="geometry">
            <mxPoint x="165" y="350" as="sourcePoint" />
            <mxPoint x="490" y="540" as="targetPoint" />
          </mxGeometry>
        </mxCell>
        <mxCell id="hsou_hVJxLvewTwKrY3T-24" style="edgeStyle=orthogonalEdgeStyle;rounded=0;orthogonalLoop=1;jettySize=auto;html=1;" edge="1" parent="1" source="hsou_hVJxLvewTwKrY3T-22" target="hsou_hVJxLvewTwKrY3T-23">
          <mxGeometry relative="1" as="geometry">
            <Array as="points">
              <mxPoint x="250" y="430" />
            </Array>
          </mxGeometry>
        </mxCell>
        <mxCell id="hsou_hVJxLvewTwKrY3T-25" style="edgeStyle=orthogonalEdgeStyle;rounded=0;orthogonalLoop=1;jettySize=auto;html=1;" edge="1" parent="1" source="hsou_hVJxLvewTwKrY3T-23" target="hsou_hVJxLvewTwKrY3T-11">
          <mxGeometry relative="1" as="geometry" />
        </mxCell>
        <mxCell id="hsou_hVJxLvewTwKrY3T-29" style="edgeStyle=orthogonalEdgeStyle;rounded=0;orthogonalLoop=1;jettySize=auto;html=1;" edge="1" parent="1" source="hsou_hVJxLvewTwKrY3T-26" target="hsou_hVJxLvewTwKrY3T-28">
          <mxGeometry relative="1" as="geometry" />
        </mxCell>
      </root>
    </mxGraphModel>
  </diagram>
  <diagram id="OxA0nee-LMnqQL6n7cqq" name="Page-2">
    <mxGraphModel dx="2074" dy="1187" grid="1" gridSize="10" guides="1" tooltips="1" connect="1" arrows="1" fold="1" page="1" pageScale="1" pageWidth="827" pageHeight="1169" math="0" shadow="0">
      <root>
        <mxCell id="0" />
        <mxCell id="1" parent="0" />
        <mxCell id="QGbEVGnizxaCo9vJ5gYI-1" value="Dis" style="swimlane;whiteSpace=wrap;html=1;" vertex="1" parent="1">
          <mxGeometry x="40" y="90" width="270" height="590" as="geometry" />
        </mxCell>
        <mxCell id="QGbEVGnizxaCo9vJ5gYI-28" style="edgeStyle=orthogonalEdgeStyle;rounded=0;orthogonalLoop=1;jettySize=auto;html=1;" edge="1" parent="QGbEVGnizxaCo9vJ5gYI-1" source="QGbEVGnizxaCo9vJ5gYI-5" target="QGbEVGnizxaCo9vJ5gYI-6">
          <mxGeometry relative="1" as="geometry" />
        </mxCell>
        <mxCell id="QGbEVGnizxaCo9vJ5gYI-5" value="" style="ellipse;fillColor=strokeColor;" vertex="1" parent="QGbEVGnizxaCo9vJ5gYI-1">
          <mxGeometry x="60" y="50" width="30" height="30" as="geometry" />
        </mxCell>
        <mxCell id="QGbEVGnizxaCo9vJ5gYI-29" style="edgeStyle=orthogonalEdgeStyle;rounded=0;orthogonalLoop=1;jettySize=auto;html=1;entryX=0.5;entryY=0;entryDx=0;entryDy=0;" edge="1" parent="QGbEVGnizxaCo9vJ5gYI-1" source="QGbEVGnizxaCo9vJ5gYI-6" target="QGbEVGnizxaCo9vJ5gYI-7">
          <mxGeometry relative="1" as="geometry" />
        </mxCell>
        <mxCell id="QGbEVGnizxaCo9vJ5gYI-6" value="Etablir dossier" style="rounded=1;whiteSpace=wrap;html=1;" vertex="1" parent="QGbEVGnizxaCo9vJ5gYI-1">
          <mxGeometry x="30" y="120" width="120" height="60" as="geometry" />
        </mxCell>
        <mxCell id="QGbEVGnizxaCo9vJ5gYI-7" value="envoie dossier" style="rounded=1;whiteSpace=wrap;html=1;" vertex="1" parent="QGbEVGnizxaCo9vJ5gYI-1">
          <mxGeometry x="30" y="220" width="120" height="60" as="geometry" />
        </mxCell>
        <mxCell id="QGbEVGnizxaCo9vJ5gYI-24" style="edgeStyle=orthogonalEdgeStyle;rounded=0;orthogonalLoop=1;jettySize=auto;html=1;" edge="1" parent="QGbEVGnizxaCo9vJ5gYI-1" source="QGbEVGnizxaCo9vJ5gYI-20" target="QGbEVGnizxaCo9vJ5gYI-23">
          <mxGeometry relative="1" as="geometry" />
        </mxCell>
        <mxCell id="QGbEVGnizxaCo9vJ5gYI-20" value="Dossier définitif créer" style="rounded=1;whiteSpace=wrap;html=1;" vertex="1" parent="QGbEVGnizxaCo9vJ5gYI-1">
          <mxGeometry x="50" y="410" width="120" height="60" as="geometry" />
        </mxCell>
        <mxCell id="QGbEVGnizxaCo9vJ5gYI-23" value="" style="ellipse;html=1;shape=endState;fillColor=strokeColor;" vertex="1" parent="QGbEVGnizxaCo9vJ5gYI-1">
          <mxGeometry x="95" y="520" width="30" height="30" as="geometry" />
        </mxCell>
        <mxCell id="QGbEVGnizxaCo9vJ5gYI-2" value="SIege" style="swimlane;whiteSpace=wrap;html=1;" vertex="1" parent="1">
          <mxGeometry x="310" y="90" width="250" height="590" as="geometry" />
        </mxCell>
        <mxCell id="QGbEVGnizxaCo9vJ5gYI-14" style="edgeStyle=orthogonalEdgeStyle;rounded=0;orthogonalLoop=1;jettySize=auto;html=1;exitX=0.5;exitY=1;exitDx=0;exitDy=0;" edge="1" parent="QGbEVGnizxaCo9vJ5gYI-2" source="QGbEVGnizxaCo9vJ5gYI-9" target="QGbEVGnizxaCo9vJ5gYI-12">
          <mxGeometry relative="1" as="geometry" />
        </mxCell>
        <mxCell id="QGbEVGnizxaCo9vJ5gYI-9" value="" style="rhombus;" vertex="1" parent="QGbEVGnizxaCo9vJ5gYI-2">
          <mxGeometry x="30" y="270" width="30" height="30" as="geometry" />
        </mxCell>
        <mxCell id="QGbEVGnizxaCo9vJ5gYI-10" value="" style="ellipse;html=1;shape=endState;fillColor=strokeColor;" vertex="1" parent="QGbEVGnizxaCo9vJ5gYI-2">
          <mxGeometry x="30" y="340" width="30" height="30" as="geometry" />
        </mxCell>
        <mxCell id="QGbEVGnizxaCo9vJ5gYI-15" style="edgeStyle=orthogonalEdgeStyle;rounded=0;orthogonalLoop=1;jettySize=auto;html=1;entryX=0;entryY=0.5;entryDx=0;entryDy=0;" edge="1" parent="QGbEVGnizxaCo9vJ5gYI-2" source="QGbEVGnizxaCo9vJ5gYI-12" target="QGbEVGnizxaCo9vJ5gYI-10">
          <mxGeometry relative="1" as="geometry">
            <Array as="points">
              <mxPoint x="-2" y="320" />
              <mxPoint x="-2" y="355" />
            </Array>
          </mxGeometry>
        </mxCell>
        <mxCell id="QGbEVGnizxaCo9vJ5gYI-16" style="edgeStyle=orthogonalEdgeStyle;rounded=0;orthogonalLoop=1;jettySize=auto;html=1;entryX=1;entryY=0.5;entryDx=0;entryDy=0;" edge="1" parent="QGbEVGnizxaCo9vJ5gYI-2" source="QGbEVGnizxaCo9vJ5gYI-12" target="QGbEVGnizxaCo9vJ5gYI-13">
          <mxGeometry relative="1" as="geometry">
            <Array as="points">
              <mxPoint x="140" y="343" />
              <mxPoint x="140" y="330" />
              <mxPoint x="180" y="330" />
              <mxPoint x="180" y="370" />
            </Array>
          </mxGeometry>
        </mxCell>
        <mxCell id="QGbEVGnizxaCo9vJ5gYI-12" value="" style="html=1;points=[];perimeter=orthogonalPerimeter;fillColor=strokeColor;rotation=90;" vertex="1" parent="QGbEVGnizxaCo9vJ5gYI-2">
          <mxGeometry x="55" y="280" width="5" height="80" as="geometry" />
        </mxCell>
        <mxCell id="QGbEVGnizxaCo9vJ5gYI-13" value="Prévient bank" style="rounded=1;whiteSpace=wrap;html=1;" vertex="1" parent="QGbEVGnizxaCo9vJ5gYI-2">
          <mxGeometry x="90" y="350" width="70" height="40" as="geometry" />
        </mxCell>
        <mxCell id="QGbEVGnizxaCo9vJ5gYI-3" value="Bank" style="swimlane;whiteSpace=wrap;html=1;" vertex="1" parent="1">
          <mxGeometry x="560" y="90" width="260" height="590" as="geometry" />
        </mxCell>
        <mxCell id="QGbEVGnizxaCo9vJ5gYI-26" style="edgeStyle=orthogonalEdgeStyle;rounded=0;orthogonalLoop=1;jettySize=auto;html=1;entryX=0.167;entryY=0.417;entryDx=0;entryDy=0;entryPerimeter=0;" edge="1" parent="QGbEVGnizxaCo9vJ5gYI-3" source="QGbEVGnizxaCo9vJ5gYI-18" target="QGbEVGnizxaCo9vJ5gYI-25">
          <mxGeometry relative="1" as="geometry" />
        </mxCell>
        <mxCell id="QGbEVGnizxaCo9vJ5gYI-18" value="" style="rhombus;" vertex="1" parent="QGbEVGnizxaCo9vJ5gYI-3">
          <mxGeometry x="50" y="270" width="30" height="30" as="geometry" />
        </mxCell>
        <mxCell id="QGbEVGnizxaCo9vJ5gYI-25" value="Demande de réétudie le dossier" style="rounded=1;whiteSpace=wrap;html=1;" vertex="1" parent="QGbEVGnizxaCo9vJ5gYI-3">
          <mxGeometry x="130" y="260" width="120" height="60" as="geometry" />
        </mxCell>
        <mxCell id="QGbEVGnizxaCo9vJ5gYI-19" style="edgeStyle=orthogonalEdgeStyle;rounded=0;orthogonalLoop=1;jettySize=auto;html=1;entryX=0;entryY=0.5;entryDx=0;entryDy=0;" edge="1" parent="1" source="QGbEVGnizxaCo9vJ5gYI-9" target="QGbEVGnizxaCo9vJ5gYI-18">
          <mxGeometry relative="1" as="geometry" />
        </mxCell>
        <mxCell id="QGbEVGnizxaCo9vJ5gYI-21" style="edgeStyle=orthogonalEdgeStyle;rounded=0;orthogonalLoop=1;jettySize=auto;html=1;entryX=1;entryY=0.75;entryDx=0;entryDy=0;" edge="1" parent="1" source="QGbEVGnizxaCo9vJ5gYI-18" target="QGbEVGnizxaCo9vJ5gYI-20">
          <mxGeometry relative="1" as="geometry">
            <Array as="points">
              <mxPoint x="625" y="545" />
            </Array>
          </mxGeometry>
        </mxCell>
        <mxCell id="QGbEVGnizxaCo9vJ5gYI-27" style="edgeStyle=orthogonalEdgeStyle;rounded=0;orthogonalLoop=1;jettySize=auto;html=1;entryX=1;entryY=0.25;entryDx=0;entryDy=0;" edge="1" parent="1" source="QGbEVGnizxaCo9vJ5gYI-25" target="QGbEVGnizxaCo9vJ5gYI-6">
          <mxGeometry relative="1" as="geometry">
            <Array as="points">
              <mxPoint x="750" y="225" />
            </Array>
          </mxGeometry>
        </mxCell>
        <mxCell id="QGbEVGnizxaCo9vJ5gYI-30" style="edgeStyle=orthogonalEdgeStyle;rounded=0;orthogonalLoop=1;jettySize=auto;html=1;entryX=0;entryY=0.5;entryDx=0;entryDy=0;" edge="1" parent="1" source="QGbEVGnizxaCo9vJ5gYI-7" target="QGbEVGnizxaCo9vJ5gYI-9">
          <mxGeometry relative="1" as="geometry">
            <mxPoint x="260" y="340" as="targetPoint" />
          </mxGeometry>
        </mxCell>
      </root>
    </mxGraphModel>
  </diagram>
  <diagram id="F_FEaLRUoXEb-3I_tzID" name="Page-3">
    <mxGraphModel dx="954" dy="647" grid="1" gridSize="10" guides="1" tooltips="1" connect="1" arrows="1" fold="1" page="1" pageScale="1" pageWidth="827" pageHeight="1169" math="0" shadow="0">
      <root>
        <mxCell id="0" />
        <mxCell id="1" parent="0" />
      </root>
    </mxGraphModel>
  </diagram>
</mxfile>
